<svg viewBox="0 0 26 25" fill="none" xmlns="http://www.w3.org/2000/svg">
  <path fill-rule="evenodd" clip-rule="evenodd" d="M18.4284 1.30734L18.4255 1.30567C17.9131 1.01181 17.3259 0.87614 16.7408 0.916416C16.1559 0.956685 15.6004 1.17088 15.1469 1.53097L13.8213 2.58121L11.5883 2.54343L10.2253 1.45984L10.2105 1.44828C9.74979 1.09398 9.19561 0.881106 8.61837 0.836723C8.04114 0.792315 7.4669 0.918389 6.96865 1.19892L6.96327 1.20196L5.73511 1.90249C5.22804 2.18521 4.82198 2.6144 4.57015 3.13398C4.31719 3.65587 4.23172 4.24443 4.32502 4.82198L4.32609 4.82845L4.60932 6.51871L3.52792 8.39175L1.94713 9.00635C1.40219 9.21461 0.936837 9.58223 0.612215 10.061C0.288157 10.5389 0.119488 11.1051 0.128221 11.6856L0.135633 13.0994L0.135659 13.1056C0.141848 13.6774 0.319747 14.2378 0.646834 14.7155C0.973905 15.1932 1.43539 15.5666 1.97255 15.7885L1.98998 15.7955L3.60636 16.4328L4.72864 18.3275L4.48147 20.0036C4.3963 20.5764 4.48841 21.1652 4.74608 21.6919C5.00376 22.2188 5.4148 22.6596 5.92553 22.9563L5.92844 22.958L7.23136 23.7102L7.23427 23.7119C7.74661 24.0058 8.33387 24.1414 8.91899 24.1011C9.5039 24.0609 10.0595 23.8467 10.513 23.4865L11.8414 22.434L14.0433 22.4586L15.4035 23.5397L15.4183 23.5514C15.8789 23.9056 16.4332 24.1186 17.0103 24.1629C17.5876 24.2074 18.1618 24.0812 18.6601 23.8007L18.6655 23.7976L19.8935 23.0973C20.4007 22.8145 20.8068 22.3853 21.0587 21.8657C21.3115 21.3438 21.3971 20.7553 21.3038 20.1777L21.3027 20.1712L21.0195 18.481L22.1008 16.6079L23.6817 15.9934C24.2265 15.7851 24.692 15.4175 25.0165 14.9387C25.3406 14.4609 25.5093 13.8946 25.5005 13.3141L25.4931 11.9002L25.4931 11.894C25.4869 11.3223 25.3091 10.762 24.9819 10.2842C24.6549 9.80654 24.1934 9.43299 23.6563 9.21118L23.6388 9.20415L22.0224 8.56689L20.9002 6.67213L21.1473 4.99606C21.2325 4.42321 21.1403 3.83446 20.8827 3.30774C20.625 2.78087 20.2139 2.34017 19.7032 2.04335L19.7003 2.04167L18.4284 1.30734ZM17.3143 3.24122L18.5826 3.97345C18.6953 4.03922 18.786 4.13664 18.8429 4.25302C18.9 4.3698 18.9205 4.50021 18.9016 4.62721L18.5963 6.69736C18.559 6.95044 18.6107 7.21021 18.7429 7.43343L20.2719 10.015C20.403 10.2363 20.6054 10.4085 20.8458 10.5032L22.8229 11.2827C22.939 11.3321 23.039 11.4138 23.1101 11.5177C23.1822 11.623 23.2215 11.7463 23.2234 11.8722L23.2234 11.8745L23.2308 13.2883L23.2309 13.3021C23.2332 13.4313 23.1958 13.5575 23.1238 13.6639C23.0516 13.7703 22.948 13.8519 22.8269 13.898L22.8191 13.9009L20.8726 14.6579C20.6377 14.7492 20.442 14.9164 20.3171 15.1328L18.8459 17.6809C18.7185 17.9017 18.6722 18.1604 18.7147 18.414L19.0625 20.4898L19.063 20.4923C19.0829 20.6194 19.0639 20.7489 19.0082 20.8639C18.9522 20.9796 18.8615 21.075 18.7485 21.1377L18.7364 21.1444L17.5084 21.845L17.5063 21.8461C17.3964 21.9075 17.2699 21.9349 17.1427 21.9252C17.0171 21.9155 16.8966 21.8698 16.7955 21.794L15.132 20.4715C14.9297 20.3106 14.6794 20.2215 14.4222 20.2186L11.422 20.1853C11.1626 20.1823 10.9118 20.2674 10.7113 20.4262L9.07222 21.7249C8.97169 21.8047 8.84736 21.8531 8.71771 21.862C8.58848 21.8709 8.45873 21.8411 8.34549 21.7764L7.04614 21.0262C6.93343 20.9605 6.84278 20.863 6.78587 20.7466C6.72871 20.6299 6.70832 20.4994 6.72724 20.3724L7.03253 18.3023C7.06983 18.0492 7.01807 17.7894 6.88583 17.5663L5.35685 14.9847C5.22575 14.7635 5.02344 14.5912 4.78291 14.4965L2.80589 13.7171C2.68969 13.6675 2.58978 13.5859 2.51863 13.4819C2.44663 13.3767 2.40715 13.2535 2.40537 13.1275L2.40532 13.1252L2.39794 11.7114L2.39778 11.6976C2.3955 11.5683 2.4329 11.4422 2.50503 11.3358C2.57718 11.2294 2.68066 11.1478 2.80186 11.1017L2.80957 11.0987L4.75626 10.3419C4.99115 10.2505 5.18673 10.0833 5.31165 9.86691L6.78283 7.31876C6.91028 7.09802 6.95659 6.8393 6.91411 6.58565L6.56587 4.50749C6.54582 4.38027 6.56488 4.25073 6.62059 4.1358C6.67664 4.02013 6.7672 3.92467 6.88027 3.86203L6.89233 3.85524L8.12242 3.15363C8.23238 3.09227 8.35886 3.06472 8.48602 3.0745C8.6116 3.08416 8.73226 3.1298 8.83325 3.20576L10.4967 4.5282C10.6973 4.68764 10.945 4.77669 11.1999 4.78101L14.2311 4.83228C14.4928 4.83673 14.7463 4.75159 14.9485 4.59133L16.5875 3.29281C16.688 3.21294 16.8124 3.16451 16.9421 3.15558C17.0713 3.14669 17.201 3.17653 17.3143 3.24122ZM9.25659 10.4457C8.85931 11.1338 8.67963 11.9269 8.74026 12.7247C8.80086 13.5226 9.09907 14.2893 9.59715 14.928C10.0952 15.5666 10.7708 16.0486 11.5385 16.3128C12.3061 16.577 13.1314 16.6116 13.9098 16.4124C14.6883 16.2131 15.3851 15.7888 15.912 15.1932C16.4389 14.5976 16.7723 13.8574 16.8701 13.0662C16.9678 12.275 16.8255 11.4684 16.4611 10.7483C16.0968 10.0282 15.5267 9.42699 14.823 9.02073C13.8795 8.47595 12.7629 8.32004 11.719 8.58725C10.6751 8.8545 9.78931 9.523 9.25659 10.4457Z" fill="black"/>
</svg>
