<svg viewBox="0 0 25 23" fill="none" xmlns="http://www.w3.org/2000/svg">
<path fill-rule="evenodd" clip-rule="evenodd" d="M15.5724 2.78693C15.6685 2.77393 15.7668 2.76718 15.8671 2.76718C17.1501 2.76718 18.1903 3.88386 18.1903 5.26135C18.1903 6.63883 17.1501 7.75551 15.8671 7.75551C15.7668 7.75551 15.6685 7.74876 15.5724 7.73576C14.9938 7.65751 14.4656 8.09766 14.3927 8.71888C14.3198 9.3401 14.7298 9.90714 15.3084 9.98541C15.4918 10.0102 15.6783 10.0229 15.8671 10.0229C18.3165 10.0229 20.3022 7.8911 20.3022 5.26135C20.3022 2.63159 18.3165 0.499756 15.8671 0.499756C15.6783 0.499756 15.4918 0.512479 15.3084 0.537288C14.7298 0.615554 14.3198 1.1826 14.3927 1.80381C14.4656 2.42503 14.9938 2.86519 15.5724 2.78693ZM18.3592 12C17.801 11.819 17.2117 12.1581 17.0431 12.7575C16.8745 13.3569 17.1904 13.9895 17.7486 14.1706C20.2661 14.9868 22.0923 17.3892 22.202 20.2323H20.5133C19.9302 20.2323 19.4573 20.7399 19.4573 21.366C19.4573 21.9922 19.9302 22.4998 20.5133 22.4998H23.2632C23.8464 22.4998 24.3192 21.9922 24.3192 21.366V20.5035C24.3192 16.4867 21.7965 13.1145 18.3592 12ZM9.10918 11.607C4.46477 11.607 0.65918 15.5663 0.65918 20.5035V21.366C0.65918 21.992 1.13196 22.4998 1.71516 22.4998H16.5032C17.0864 22.4998 17.5592 21.992 17.5592 21.366V20.5035C17.5592 15.5663 13.7536 11.607 9.10918 11.607ZM6.78552 5.26135C6.78552 3.88386 7.82563 2.76718 9.10867 2.76718C10.3917 2.76718 11.4318 3.88386 11.4318 5.26135C11.4318 6.63883 10.3917 7.75551 9.10867 7.75551C7.82563 7.75551 6.78552 6.63883 6.78552 5.26135ZM9.10867 0.499756C6.65922 0.499756 4.67355 2.63159 4.67355 5.26135C4.67355 7.8911 6.65922 10.0229 9.10867 10.0229C11.5581 10.0229 13.5438 7.8911 13.5438 5.26135C13.5438 2.63159 11.5581 0.499756 9.10867 0.499756Z" fill="black"/>
</svg>
