<svg viewBox="0 0 45 61" fill="none" xmlns="http://www.w3.org/2000/svg">
  <path d="M11.7488 60.5444C11.5783 60.4954 11.1804 60.3336 10.8704 60.1915C10.1263 59.8483 9.73364 59.4954 9.39262 58.8631C8.85008 57.8681 8.79324 57.5299 8.75707 54.9908C8.7364 53.9124 8.72607 48.6872 8.72607 43.3738C8.73124 38.0653 8.72608 33.5411 8.71574 33.3254C8.69508 32.698 8.70024 32.4284 8.72607 32.399C8.74158 32.3843 8.99993 32.3401 9.29445 32.296C9.59413 32.2519 10.0488 32.1539 10.3123 32.0804C10.736 31.9529 10.7877 31.948 10.8187 32.0215C10.8394 32.0657 10.8549 37.6585 10.8497 44.4522C10.8445 51.5302 10.8652 56.9515 10.891 57.1475C10.9892 57.8583 11.2889 58.3337 11.7953 58.569C12.1363 58.7259 12.4566 58.7406 12.7357 58.6033C13.0147 58.4661 13.49 57.9759 13.6605 57.6426C13.7897 57.3877 13.8052 57.3093 13.8466 56.4025C13.8724 55.8682 13.9034 49.7656 13.9086 42.8346C13.9189 32.3548 13.9344 30.1883 13.9912 29.9383C14.0326 29.7717 14.0532 29.605 14.0326 29.5658C14.0119 29.507 13.7949 29.5903 13.056 29.9383C12.095 30.3942 11.3251 30.7226 9.94032 31.2667C9.51146 31.4333 8.85008 31.6931 8.46773 31.85C6.60245 32.6048 6.56628 32.6146 5.71889 32.6146C5.15053 32.6146 5.10919 32.6097 5.05235 32.5068C4.90251 32.2421 5.27453 29.6883 5.62589 28.5462C5.68272 28.3698 5.80673 27.9286 5.91006 27.5659C6.24592 26.3454 7.02097 24.3357 7.81669 22.625C9.80598 18.3557 10.2658 17.5175 11.7643 15.3901C12.3688 14.5373 12.8287 14.0177 13.4797 13.454C14.2289 12.807 14.8955 12.3413 15.5517 12.008L15.7893 11.8855L15.8203 11.0865C15.8565 10.2287 15.9444 9.59147 16.1149 8.96405C16.3164 8.2386 17.0966 6.28283 17.4169 5.70444C17.7115 5.17015 18.2023 4.41039 18.4348 4.131C18.6467 3.87121 18.6364 3.85651 18.1713 3.8222C17.0294 3.72906 15.8875 3.34183 15.0608 2.76833C14.0377 2.06249 13.707 1.03804 14.3426 0.577286C14.5338 0.440039 14.8696 0.376317 15.097 0.430236C15.1693 0.444941 15.3967 0.596893 15.6033 0.758648C16.6729 1.60664 17.2774 1.81741 18.75 1.86643C19.7576 1.90074 20.8582 1.82721 21.9897 1.65565C23.948 1.35665 24.6714 1.30273 25.6428 1.38606C26.9604 1.5037 28.2418 1.92034 29.239 2.56737C30.2776 3.2438 31.3781 4.50353 31.5952 5.26329C31.6365 5.41034 31.6933 5.61131 31.7192 5.70934C31.7605 5.84659 31.8328 5.92501 32.055 6.06226C32.582 6.40048 33.1297 7.15533 33.4501 7.99842C33.8325 8.99836 33.8325 10.6649 33.4604 11.709C33.1504 12.5668 32.551 13.356 31.9568 13.6942C31.7605 13.8069 31.7553 13.8069 31.6882 13.7187C31.6468 13.6648 31.6158 13.4981 31.6158 13.3314C31.6106 12.6011 31.4298 11.5374 31.2955 11.459C31.2748 11.4443 31.1301 11.4737 30.9803 11.5276C30.6599 11.6404 30.0812 11.7335 29.6834 11.7335H29.394V14.7137C29.394 17.9341 29.3682 18.3655 29.1098 19.5027C28.7791 20.9388 28.7016 21.1692 28.0144 22.5662C27.5804 23.4534 26.7434 24.5073 25.7255 25.4386C25.2088 25.914 25.0331 26.0562 24.0669 26.7816C23.8343 26.9581 23.5708 27.1591 23.483 27.2326L23.3228 27.3649L23.5553 27.3012C23.6845 27.2669 24.0875 27.1689 24.4595 27.0806L25.1312 26.9238L26.7072 26.9287C28.2934 26.9287 28.8515 26.963 29.7557 27.1003C30.3344 27.1934 32.9489 27.8404 33.5793 28.0512C34.561 28.3796 34.9072 28.507 35.1139 28.6247C35.3619 28.7619 35.305 28.7913 35.7029 28.3257C36.1111 27.8551 37.1548 26.8748 37.3563 26.7816C37.6457 26.6395 37.9557 26.6542 38.2347 26.8258C38.5034 26.9875 38.6429 27.2179 38.6429 27.512C38.6429 27.7914 38.5137 28.0071 38.0539 28.4972C37.3047 29.3011 37.0928 29.5609 37.0618 29.7227L37.0257 29.8795L37.2788 29.8599C37.4183 29.8452 37.7284 29.7521 37.9712 29.6491C38.8548 29.2815 39.3973 29.0903 39.5626 29.0854C39.7797 29.0854 40.1258 29.306 40.317 29.5658C40.441 29.7374 40.4617 29.8109 40.4617 30.105C40.4617 30.4922 40.3635 30.7569 40.1775 30.8745C40.1052 30.9187 39.7745 31.0363 39.4386 31.1392C39.0976 31.2422 38.5551 31.4235 38.2296 31.5363C37.904 31.649 37.5475 31.7667 37.439 31.7961C37.3357 31.8255 37.2478 31.8647 37.2478 31.8843C37.2478 31.9284 38.028 32.1098 38.7204 32.2225C39.0614 32.2813 39.4335 32.345 39.5471 32.3745C40.0793 32.5019 40.6167 32.6784 40.7304 32.7666C40.7975 32.8156 40.8699 32.8597 40.8854 32.8597C41.0042 32.8597 41.4796 31.5951 41.7379 30.6C42.1926 28.8354 42.3631 27.4728 42.3683 25.6788C42.3683 23.9583 42.1771 22.5809 41.6966 20.8996C41.6398 20.6987 41.5106 20.2428 41.4124 19.8948C41.0611 18.6596 40.2292 16.9538 39.3611 15.6695C38.3639 14.1941 37.7387 13.4589 36.4676 12.2727L35.4446 11.3169L35.4601 10.3071C35.4704 9.06209 35.4756 9.05228 35.8941 9.35128C36.0543 9.46402 36.3694 9.6895 36.5968 9.84635C37.5889 10.5522 39.7745 12.8266 40.7149 14.1353C41.4021 15.0911 42.2495 16.542 42.5595 17.2969C42.6163 17.4341 42.7765 17.8165 42.9212 18.1547C43.1847 18.7821 43.3759 19.3507 43.6911 20.483C44.2129 22.3358 44.4144 24.1102 44.3628 26.267C44.2956 28.8305 43.8926 30.7618 42.9418 33.0803C42.5543 34.0312 42.3063 34.4969 41.6243 35.5802C40.4617 37.433 38.9013 39.1927 37.532 40.1975C37.3047 40.3642 36.8551 40.6975 36.5348 40.9328C35.4652 41.7219 35.0054 42.021 34.1476 42.4719C33.6774 42.7219 33.2124 42.967 33.1142 43.0209C32.3495 43.4277 30.4481 44.1581 29.5232 44.4032C29.1512 44.5012 28.5725 44.6532 28.2314 44.7463C26.6555 45.1629 24.5009 45.4276 22.6769 45.4276C20.76 45.4227 18.6829 45.1727 17.2568 44.7659C16.6987 44.609 16.0322 44.56 15.965 44.6679C15.9444 44.7022 15.9185 47.4226 15.9133 50.7165C15.903 55.7555 15.8927 56.7848 15.8255 57.2113C15.6757 58.2014 15.3863 58.819 14.8128 59.4023C14.2082 60.015 13.366 60.5493 12.839 60.6522C12.56 60.7061 12.1311 60.662 11.7488 60.5444ZM6.36476 40.1044C5.17635 39.075 4.42197 38.2221 3.46091 36.8203C2.62903 35.5998 2.17434 34.8106 1.65764 33.6685C1.20811 32.6735 1.04277 32.2274 0.722412 31.0706C0.396892 29.904 0.340061 29.6393 0.205719 28.6933C-0.171471 26.0366 -0.0112943 23.0956 0.644913 20.6349C1.04794 19.1252 1.9935 16.9489 2.88222 15.4931C3.38858 14.6647 3.98278 13.8118 4.52015 13.1452C5.24353 12.2531 5.89457 11.5717 6.86596 10.6845C8.90175 8.83171 11.6454 7.17494 14.2289 6.24362C14.6991 6.07206 14.8955 6.02795 15.066 6.04265C15.19 6.05246 15.3398 6.42498 15.3398 6.70928C15.3398 7.04259 15.2055 7.62589 15.0711 7.87588C14.9523 8.10136 14.7869 8.2043 14.1824 8.40526C13.49 8.63564 11.8779 9.41011 11.2321 9.82185C8.35405 11.6453 6.88663 12.9981 5.21769 15.3705C4.49948 16.3901 3.57976 18.1008 3.21807 19.086C3.12507 19.3409 2.98039 19.7281 2.89255 19.9438C2.58253 20.6889 2.27768 22.0368 2.05033 23.6446C2.00383 23.9485 1.98316 24.669 1.98316 25.7033C1.98833 27.0659 2.00383 27.414 2.10201 28.1051C2.51536 31.0167 3.17673 32.796 4.76817 35.286C5.22286 35.9968 5.76539 36.7124 6.79362 37.933C7.06231 38.2565 7.33099 38.6045 7.38783 38.7025C7.517 38.9378 7.52217 39.5554 7.40333 39.7956C7.32066 39.9671 6.8608 40.4083 6.76779 40.4083C6.73679 40.4083 6.55594 40.2711 6.36476 40.1044Z" fill="white"/>
  <path d="M12.7511 60.7494C13.2781 60.6465 14.1204 60.1122 14.7249 59.4995C15.2984 58.9162 15.5878 58.2986 15.7376 57.3084C15.8048 56.882 15.8151 55.8526 15.8255 50.8137C15.8306 47.5198 15.8565 44.7993 15.8771 44.765C15.9443 44.6572 16.6108 44.7062 17.1689 44.8631C18.595 45.2699 20.6721 45.5199 22.589 45.5248C24.413 45.5248 26.5676 45.2601 28.1435 44.8435C28.4846 44.7503 29.0633 44.5984 29.4353 44.5003C30.3602 44.2553 32.2616 43.5249 33.0264 43.1181C33.1245 43.0641 33.5896 42.8191 34.0597 42.5691C34.9175 42.1181 35.3773 41.8191 36.4469 41.0299C36.7672 40.7947 37.2168 40.4614 37.4441 40.2947C38.8134 39.2899 40.3738 37.5302 41.5364 35.6773C42.2184 34.594 42.4664 34.1284 42.854 33.1775C43.8047 30.859 44.2077 28.9277 44.2749 26.3641C44.3265 24.2074 44.125 22.433 43.6032 20.5802C43.288 19.4479 43.0968 18.8793 42.8333 18.2519C42.6886 17.9136 42.5284 17.5313 42.4716 17.3941C42.1616 16.6392 41.3142 15.1883 40.627 14.2325C39.6866 12.9237 37.501 10.6494 36.5089 9.94352C36.2816 9.78667 35.9664 9.56119 35.8062 9.44845C35.3877 9.14945 35.3825 9.15925 35.3722 10.4043L35.3567 11.414L36.3797 12.3699C37.6508 13.5561 38.276 14.2913 39.2732 15.7667C40.1413 17.051 40.9732 18.7567 41.3245 19.992C41.4227 20.34 41.5519 20.7958 41.6087 20.9968C42.0892 22.6781 42.2804 24.0554 42.2804 25.7759C42.2753 27.5699 42.1047 28.9326 41.65 30.6972C41.3917 31.6923 40.9163 32.9569 40.7975 32.9569C40.782 32.9569 40.7097 32.9128 40.6425 32.8638C40.5288 32.7755 39.9914 32.5991 39.4592 32.4716C39.3456 32.4422 38.9735 32.3785 38.6325 32.3197C37.9402 32.2069 37.1599 32.0256 37.1599 31.9815C37.1599 31.9618 37.2478 31.9226 37.3563 31.8932C37.4596 31.8638 37.8161 31.7462 38.1417 31.6334C38.4672 31.5207 39.0097 31.3393 39.3507 31.2364C39.6866 31.1335 40.0173 31.0158 40.0896 30.9717C40.2756 30.8541 40.3738 30.5894 40.3738 30.2021C40.3738 29.908 40.3531 29.8345 40.2291 29.663C40.0379 29.4032 39.6918 29.1826 39.4747 29.1826C39.3094 29.1875 38.7669 29.3787 37.8833 29.7463C37.6405 29.8492 37.3304 29.9424 37.1909 29.9571L36.9378 29.9767L36.9739 29.8198C37.0049 29.6581 37.2168 29.3983 37.966 28.5944C38.4258 28.1042 38.555 27.8886 38.555 27.6092C38.555 26.9916 37.8523 26.5945 37.2684 26.8788C37.0669 26.9719 36.0232 27.9523 35.615 28.4228C35.2172 28.8885 35.274 28.8591 35.026 28.7218C34.8193 28.6042 34.4731 28.4768 33.4914 28.1483C32.861 27.9376 30.2465 27.2906 29.6678 27.1974C28.7636 27.0602 28.2056 27.0259 26.6193 27.0259L25.0434 27.021L24.3717 27.1778C23.9996 27.266 23.5966 27.3641 23.4674 27.3984L23.2349 27.4621L23.3951 27.3298C23.4829 27.2562 23.7464 27.0553 23.979 26.8788C24.9452 26.1534 25.1209 26.0112 25.6376 25.5358C26.6555 24.6044 27.4925 23.5506 27.9265 22.6634C28.6137 21.2664 28.6913 21.036 29.0219 19.5998C29.2803 18.4626 29.3061 18.0313 29.3061 14.8109V11.8307H29.5955C29.9933 11.8307 30.572 11.7375 30.8924 11.6248C31.0422 11.5709 31.1869 11.5415 31.2076 11.5562C31.3419 11.6346 31.5228 12.6983 31.5279 13.4286C31.5279 13.5953 31.5589 13.7619 31.6003 13.8158C31.6674 13.9041 31.6726 13.9041 31.8689 13.7913C32.4631 13.4531 33.0625 12.664 33.3725 11.8062C33.6412 11.0611 33.7291 9.71314 33.5689 8.85535C33.3674 7.76718 32.6802 6.61038 31.9671 6.15943C31.7449 6.02218 31.6726 5.94376 31.6313 5.80651C31.6054 5.70848 31.5486 5.50751 31.5073 5.36046C31.2902 4.6007 30.1897 3.34097 29.1511 2.66453C28.1539 2.01751 26.8725 1.60087 25.5549 1.48323C24.5835 1.3999 23.8601 1.45382 21.9018 1.75282C20.7703 1.92438 19.6697 1.99791 18.6621 1.9636C17.1895 1.91458 16.585 1.70381 15.5154 0.855817C15.3088 0.694061 15.0814 0.542109 15.0091 0.527404C14.7817 0.473485 14.4459 0.537207 14.2547 0.674454C13.6192 1.13521 13.9498 2.15966 14.9729 2.8655C15.7996 3.439 16.9415 3.82623 18.0834 3.91936C18.5485 3.95368 18.5588 3.96838 18.3469 4.22817C18.1144 4.50756 17.6236 5.26732 17.329 5.80161C17.0087 6.38 16.2285 8.33577 16.027 9.06122C15.8565 9.68864 15.7686 10.3259 15.7325 11.1836L15.7014 11.9826L15.4638 12.1052C14.8076 12.4385 14.141 12.9041 13.3918 13.5512C12.7408 14.1148 12.2809 14.6344 11.6764 15.4873C10.1779 17.6146 9.71808 18.4528 7.72879 22.7222C6.93308 24.4329 6.15803 26.4426 5.82217 27.6631C5.71883 28.0258 5.59483 28.467 5.53799 28.6434C5.18664 29.7855 4.81461 32.3393 4.96446 32.604C5.02129 32.7069 5.06263 32.7118 5.631 32.7118C6.47838 32.7118 6.51455 32.702 8.37983 31.9471C8.76219 31.7903 9.42356 31.5305 9.85242 31.3638C11.2372 30.8198 12.0071 30.4913 12.9681 30.0355C13.707 29.6875 13.924 29.6041 13.9447 29.663C13.9653 29.7022 13.9447 29.8688 13.9033 30.0355C13.8465 30.2855 13.831 32.452 13.8207 42.9318C13.8155 49.8628 13.7845 55.9654 13.7587 56.4996C13.7173 57.4064 13.7018 57.4849 13.5727 57.7398C13.4021 58.0731 12.9268 58.5632 12.6478 58.7005C12.3687 58.8377 12.0484 58.823 11.7074 58.6662C11.201 58.4309 10.9013 57.9554 10.8031 57.2447C10.7773 57.0486 10.7566 51.6274 10.7618 44.5494C10.767 37.7556 10.6746 31.0893 10.6539 31.0452C10.6539 31.0452 10.6539 31.0452 10.064 31.2805C8.9482 31.7187 9.85242 31.3638 8.9482 31.7187C8.9482 31.7187 8.67435 31.8295 8.61946 31.85C8.62268 32.2216 8.61946 31.85 8.62268 32.5157C8.62268 32.5648 8.60718 32.7951 8.62785 33.4225C8.63818 33.6382 8.64335 38.1625 8.63818 43.471C8.63818 48.7844 8.64852 54.0096 8.66918 55.088C8.70535 57.627 8.76219 57.9652 9.30472 58.9603C9.64574 59.5926 10.0384 59.9455 10.7825 60.2886C11.697 60.7102 12.2654 60.8425 12.7511 60.7494ZM20.6153 43.618C19.7059 43.5347 19.339 43.4857 19.1117 43.4024C18.936 43.3386 18.9308 43.2504 19.1065 43.2504C19.184 43.2504 19.525 43.1083 19.8712 42.9367C20.2174 42.7651 20.7496 42.5201 21.0648 42.3926C21.3748 42.2701 21.8967 42.0446 22.2274 41.9024C22.558 41.7603 23.1264 41.525 23.4933 41.3878C23.8653 41.2456 24.3975 41.0398 24.6817 40.9221C24.9659 40.8045 25.4877 40.6182 25.8391 40.5104C26.1956 40.3976 26.6141 40.2506 26.7691 40.1869L27.0585 40.0643L28.0144 40.5349C29.3785 41.2113 30.4325 41.7848 30.6134 41.9417C30.7994 42.1034 30.7477 42.1916 30.4222 42.275C30.3085 42.3044 29.735 42.4808 29.1511 42.6622C28.5672 42.8485 27.9885 43.02 27.8594 43.0445C27.7302 43.074 27.477 43.1328 27.291 43.172C26.6968 43.2994 25.7357 43.4367 24.8367 43.52C22.8474 43.7014 21.8295 43.7259 20.6153 43.618ZM17.6804 43.1524C16.7658 42.971 15.996 42.7995 15.9236 42.7602C15.8771 42.7357 15.8461 42.6622 15.8513 42.5593C15.8565 42.4661 15.8668 41.8828 15.8771 41.2554L15.8926 40.1231L16.0735 40.0741C16.1768 40.0447 16.4558 39.9859 16.6987 39.9418L17.143 39.8585L17.5512 40.0104C17.7786 40.0888 18.1971 40.2212 18.4813 40.2996C19.2615 40.5202 20.0831 40.8241 20.0831 40.8927C20.0831 40.927 19.8505 41.0447 19.5664 41.1525C19.2822 41.2603 18.9102 41.4025 18.7345 41.4662C18.3986 41.5936 18.0576 41.8681 18.0111 42.0495C17.9388 42.3191 18.2126 42.8926 18.5071 43.0985C18.6208 43.172 18.6931 43.2504 18.6725 43.27C18.6311 43.3141 18.2643 43.27 17.6804 43.1524ZM31.9723 40.8535C31.8121 40.5594 31.4659 40.3339 29.952 39.5349C29.7246 39.4124 29.4301 39.2604 29.2906 39.1967C29.0271 39.0693 28.9961 39.0154 29.1459 38.9418C29.2855 38.8683 30.1432 38.6134 30.6495 38.4958C30.8924 38.437 31.4504 38.2801 31.8896 38.1429L32.6905 37.8929L34.1373 37.8537C35.5685 37.8145 36.7776 37.7507 37.2994 37.6821C37.6715 37.638 37.656 37.7213 37.2581 38.0056C37.0824 38.1282 36.8448 38.3242 36.7259 38.4468C35.8734 39.3095 34.4524 40.3045 33.0264 41.0447C32.7008 41.2162 32.3598 41.3927 32.2771 41.4417L32.1221 41.5299L32.086 41.2652C32.0653 41.1182 32.0136 40.9319 31.9723 40.8535ZM21.7107 39.7947C21.5143 39.7016 21.2663 39.5938 21.1578 39.5545C20.9769 39.4908 20.7083 39.3879 19.4372 38.8781C19.1685 38.7703 18.8481 38.6477 18.7241 38.6085C18.6053 38.5644 18.5123 38.5252 18.5175 38.5203C18.5278 38.5105 18.8791 38.4272 19.2977 38.3291C19.7627 38.2164 20.3259 38.0399 20.7393 37.8733L21.4161 37.6037L21.7313 37.6625C22.1292 37.7311 23.4623 38.084 23.8033 38.2115C23.9428 38.2605 24.2631 38.3928 24.5112 38.5056C25.2707 38.8438 25.2035 38.8977 23.2607 39.5742C22.9352 39.6918 22.5839 39.8192 22.4857 39.8683C22.2222 39.9957 22.1085 39.9859 21.7107 39.7947ZM26.7433 37.8782C26.4488 37.6282 26.2059 37.3488 26.2059 37.2459C26.2059 37.1821 28.9496 37.2557 29.0116 37.3145C29.0891 37.388 28.9858 37.4762 28.7119 37.5792C28.5982 37.6233 28.2262 37.7703 27.8852 37.9027C27.5442 38.0399 27.2238 38.1478 27.1722 38.1527C27.1153 38.1527 26.9241 38.0301 26.7433 37.8782ZM15.9546 37.8733C15.872 37.1821 15.8616 36.7655 15.9288 36.7263C16.0373 36.6626 16.4868 36.6724 16.9364 36.7508C17.1637 36.79 17.4944 36.8341 17.6804 36.8537C18.0886 36.8929 18.5743 37.0155 18.5381 37.0694C18.5226 37.0939 18.4193 37.1233 18.3159 37.138C18.2074 37.1576 17.7837 37.3488 17.3704 37.5645C16.6832 37.9223 16.2957 38.084 16.0683 38.0987C16.0063 38.1036 15.9805 38.0448 15.9546 37.8733ZM29.642 35.9714C28.1539 35.8489 26.9758 35.7999 26.5263 35.8391C26.2938 35.8587 26.1026 35.8636 26.1026 35.8489C26.1026 35.8342 26.2731 35.7803 26.4746 35.7312C26.6813 35.6822 27.105 35.5597 27.4202 35.4567C27.7302 35.3538 28.1746 35.2215 28.4019 35.1626C28.6292 35.0989 29.363 34.8783 30.0295 34.6676C31.6054 34.1725 31.5589 34.1823 31.9671 34.3784C32.148 34.4666 32.4321 34.6382 32.5923 34.7656C32.8713 34.9764 32.8972 35.0156 33.0057 35.3832C33.0729 35.5989 33.1297 35.8342 33.1297 35.9126V36.0449H31.8224C31.1042 36.0449 30.1225 36.0106 29.642 35.9714ZM34.9123 35.9126C35.0053 35.7018 35.0931 35.2607 35.0931 34.9911C35.0931 34.5842 34.9846 34.4274 34.5506 34.2264C34.2354 34.0794 34.1734 34.0696 33.6309 34.0598C33.0884 34.05 32.613 33.9715 32.613 33.8833C32.613 33.7363 34.6281 32.9177 35.3618 32.7657C35.5892 32.7167 35.6098 32.7216 35.7545 32.8491C35.987 33.0549 36.4676 33.2755 36.9016 33.3735C37.1134 33.4176 37.5991 33.5794 37.9867 33.7265C38.369 33.8784 38.9839 34.0941 39.3507 34.2117C39.7176 34.3245 40.0379 34.4421 40.0638 34.4666C40.0948 34.496 40.0948 34.5548 40.0534 34.6235C39.9708 34.7705 39.4282 35.4813 39.2371 35.6969L39.0872 35.8685L38.679 35.8146C38.369 35.7803 37.935 35.7901 36.8499 35.8538C36.0697 35.9028 35.3567 35.9518 35.274 35.9616C34.902 36.0057 34.871 36.0008 34.9123 35.9126ZM19.7317 35.3391C19.1323 35.1921 18.3469 34.9911 17.9904 34.8882C17.3962 34.7215 17.298 34.7068 16.7762 34.7166C16.461 34.7215 16.151 34.7313 16.0786 34.7362C15.9546 34.746 15.9495 34.7362 15.9133 34.3539C15.8926 34.1382 15.8926 33.5941 15.9081 33.1432L15.9391 32.3197H16.0993C16.2802 32.3246 16.3422 32.3344 17.3135 32.5844C17.6959 32.6824 18.3263 32.8932 18.7086 33.05C19.0962 33.2069 19.4682 33.3539 19.5405 33.3735C20.3672 33.599 22.9611 34.9862 22.8112 35.1185C22.7234 35.1921 21.1888 35.594 20.9718 35.5989C20.8943 35.6038 20.3362 35.4862 19.7317 35.3391ZM24.3975 33.8833C23.7878 33.5451 23.5811 33.452 22.9507 33.2412C22.4805 33.0843 21.6331 32.6971 21.5815 32.6187C21.566 32.5893 21.6383 32.555 21.7468 32.5402C21.8553 32.5206 22.0827 32.4765 22.2532 32.4422C22.8216 32.3246 23.1522 32.3099 25.188 32.2952C27.1877 32.2854 27.229 32.2854 28.5827 32.1138C29.3371 32.0158 30.0088 31.9128 30.0812 31.8883C30.1948 31.8491 30.2155 31.805 30.2258 31.6089C30.231 31.408 30.2155 31.3589 30.0657 31.2266C29.8642 31.0354 29.766 30.8688 29.8022 30.7805C29.8228 30.7266 29.7505 30.7021 29.5025 30.6825C28.9858 30.6384 26.6245 30.56 26.3093 30.5796C26.1543 30.5894 25.4309 30.609 24.7075 30.6237C23.2866 30.658 22.4702 30.7119 21.7365 30.8296C21.4781 30.8688 21.1061 30.9276 20.9098 30.9521C20.4757 31.0158 20.4189 31.0452 20.7444 31.0452C21.0183 31.0452 21.0544 31.1139 20.8684 31.2805C20.6618 31.4619 20.5222 31.4864 19.9745 31.4178C19.4423 31.3491 19.1117 31.2658 17.6804 30.8247C17.2102 30.6825 16.6367 30.5159 16.4042 30.457C16.1716 30.3982 15.9443 30.31 15.8978 30.261C15.8151 30.1727 15.7169 29.7365 15.7169 29.4277C15.7169 29.3346 15.6549 29.1483 15.5878 29.011C15.4896 28.8199 15.4741 28.7562 15.5258 28.6973C15.6756 28.5209 15.934 28.3199 16.4403 27.9964C18.0524 26.9572 19.3752 25.9181 20.7341 24.6289C22.2429 23.1927 22.9301 22.3203 23.5966 20.9821C24.103 19.9625 24.3406 19.1538 24.4543 18.0803C24.63 16.4039 24.3148 15.0364 23.4933 13.8649C23.1419 13.36 22.4495 12.6934 21.9432 12.3699C20.7858 11.6297 19.8454 11.3699 18.4038 11.3944L17.7579 11.4042L17.7424 11.1542C17.7166 10.7425 17.9801 9.47296 18.2591 8.64458C18.7758 7.13486 19.7369 5.54672 20.6204 4.75755C21.7055 3.78702 23.4313 3.25764 25.3172 3.31646C26.2059 3.34096 26.6451 3.439 27.3892 3.77231C28.4742 4.25758 29.2958 5.06145 29.7401 6.0712L29.8228 6.24766L29.27 6.79665C28.7429 7.32113 28.3141 7.87502 28.0454 8.37989C27.973 8.51223 27.8129 8.7034 27.6889 8.80143C27.2962 9.11024 27.2807 9.18376 27.3478 10.2229C27.4357 11.4728 27.3323 17.948 27.2187 18.6636C26.8673 20.8056 25.9424 22.7173 24.6197 24.0162C23.6069 25.0211 22.2514 26.2195 20.4171 27.0822C19.2977 27.7573 18.67 27.8271 17.8716 28.3591C17.5409 28.6532 17.4634 28.7513 17.4376 28.8983C17.4117 29.0797 17.4117 29.0846 17.6442 29.1826C18.1764 29.4081 18.7913 29.3591 19.7265 29.0208C19.9797 28.9277 20.4292 28.7807 20.7289 28.6924C21.0234 28.6042 21.4316 28.467 21.6331 28.3934C22.0672 28.2268 22.0723 28.2219 22.0723 28.3493C22.0723 28.4915 22.2274 28.5307 22.9869 28.5944C23.3486 28.6238 23.9273 28.6777 24.2683 28.7169C24.6093 28.7562 25.1674 28.8003 25.5084 28.815C28.0764 28.9326 28.8824 29.0061 29.797 29.1875C31.9671 29.6237 33.3467 30.0257 34.1476 30.4423C34.3801 30.5698 34.5816 30.6972 34.5971 30.7315C34.6074 30.7609 34.5816 30.8247 34.5351 30.859C34.4524 30.9276 31.9981 31.9766 31.9258 31.9766C31.9051 31.9766 31.5951 32.0942 31.2334 32.2412C30.1173 32.6873 29.2648 32.9863 28.4122 33.2265C27.5803 33.4569 27.1773 33.5843 26.4384 33.849C25.9217 34.0353 25.3585 34.1774 25.1209 34.1774C24.9865 34.1823 24.7902 34.099 24.3975 33.8833ZM7.26376 30.0061C7.36194 29.4228 7.46527 28.9228 7.53761 28.6924C7.65129 28.3101 8.42117 26.2465 8.74152 25.4573C8.89136 25.0946 9.0567 24.6633 9.11354 24.5064C9.17038 24.3446 9.35123 23.9574 9.51657 23.6437C9.68191 23.3349 9.97643 22.7124 10.1779 22.2712C10.6585 21.1929 11.1958 20.1096 11.4335 19.742C11.542 19.5753 11.79 19.1293 11.9864 18.7518C12.1879 18.3744 12.4308 17.9431 12.5341 17.796C12.6323 17.6441 12.7614 17.4382 12.8131 17.3352C12.9423 17.1049 13.7897 15.9677 14.1049 15.605C15.3914 14.1443 16.7814 13.3502 18.2178 13.2718C19.5715 13.1933 20.5946 13.5414 21.3851 14.3501C21.9432 14.9236 22.217 15.4677 22.3875 16.3647C22.5787 17.399 22.4495 18.2715 21.8812 19.7224C21.4006 20.9429 21.2301 21.237 20.3621 22.3448C19.9125 22.9183 19.804 23.0261 18.9463 23.7957C17.3239 25.2416 15.8668 26.2367 13.4331 27.5552C11.6505 28.5209 10.7205 28.9326 8.62785 29.6777C8.03881 29.8884 7.51178 30.0796 7.46528 30.109C7.29477 30.2021 7.23793 30.1727 7.26376 30.0061Z" fill="black"/>
  <path d="M25.6273 8.52735C26.1698 8.34598 26.5625 7.75778 26.5625 7.12056C26.5625 6.52746 26.4023 6.19905 25.9683 5.91965C25.6324 5.69908 25.2294 5.62065 24.8212 5.69908C24.4492 5.7726 24.2839 5.85103 24.0152 6.08141C23.6845 6.36571 23.5863 6.59118 23.5811 7.05684C23.5811 7.41466 23.5967 7.48819 23.762 7.79209C23.917 8.07639 23.9893 8.15482 24.2219 8.28716C24.7282 8.57146 25.2398 8.65969 25.6273 8.52735Z" fill="black"/>
  <path d="M18.0431 23.4919C18.5959 23.4086 19.1385 22.8106 19.2625 22.1391C19.371 21.595 19.2056 21.144 18.906 21.144C18.6838 21.144 18.4823 21.2519 18.3118 21.4627C18.2342 21.5607 18.0999 21.6832 18.0069 21.7371C17.6814 21.9234 17.113 21.8156 16.7255 21.4921C16.5498 21.345 16.2708 21.2813 16.2708 21.3891C16.2708 21.4185 16.214 21.4627 16.1468 21.4872C15.9608 21.5509 15.8833 21.8499 15.9814 22.1097C16.2088 22.7175 16.5395 23.1292 16.9838 23.3449C17.1543 23.4282 17.2835 23.4576 17.6917 23.5165C17.7485 23.5263 17.9036 23.5165 18.0431 23.4919Z" fill="black"/>
  <path d="M14.2812 23.5029C14.9426 23.3412 15.4541 22.7922 15.666 22.0177C15.8055 21.503 15.6402 21.0962 15.2836 21.0962C15.1648 21.0962 15.0356 21.1795 14.7153 21.4638L14.3019 21.8314H13.9299C13.4959 21.8314 13.2272 21.7334 12.8603 21.4393C12.5916 21.2285 12.4521 21.1991 12.3178 21.3266C12.1783 21.4589 12.2299 22.3167 12.3953 22.6304C12.5503 22.9196 12.943 23.2774 13.2478 23.4049C13.501 23.5127 14.0436 23.5617 14.2812 23.5029Z" fill="black"/>
  <path d="M19.448 19.6936C19.8614 19.5956 20.1094 19.4485 20.4969 19.0711C20.9103 18.6593 21.0188 18.429 21.0239 17.9829C21.0239 17.5859 20.9154 17.331 20.7087 17.2379C20.4762 17.13 20.254 17.2133 19.9389 17.5173C19.7838 17.6692 19.572 17.8555 19.4687 17.929C19.1173 18.1741 18.6729 18.0711 18.1769 17.63L17.9237 17.4045L17.3709 17.4388C16.9213 17.4682 16.7767 17.4584 16.6217 17.3996C16.5132 17.3555 16.3375 17.3212 16.2238 17.3212C16.0326 17.3212 15.9861 17.3506 15.6709 17.6643C15.2782 18.0466 15.1077 18.1055 14.6427 18.0074C14.4412 17.9633 14.3223 17.8947 14.0692 17.6594C13.8935 17.5025 13.7126 17.3702 13.6713 17.3702C13.5266 17.3702 13.3251 17.5712 13.2683 17.777C13.1753 18.1005 13.2373 18.6544 13.3975 18.9142C13.909 19.7377 15.3712 19.9975 16.1153 19.3897C16.4511 19.1201 16.88 18.5809 16.9162 18.3799C16.9627 18.1643 17.0195 18.1545 17.128 18.3603C17.283 18.6446 17.7171 19.1789 17.9237 19.3309C18.1873 19.5269 18.6161 19.7083 18.9055 19.7377C19.0346 19.7524 19.2775 19.7328 19.448 19.6936Z" fill="black"/>
  <path d="M5.71029 28.254C5.90307 28.1868 6.53388 27.9807 7.11295 27.8009L6.83765 29.6401C6.13384 29.888 5.7837 29.9967 5.12383 30.1737C4.6617 30.2966 4.1932 30.4744 4.0302 30.5925C3.22746 30.9437 2.90031 31.2074 2.58806 31.8231C2.35636 32.1694 2.13249 31.7996 2.14243 31.8817L1.9017 31.064C2.15697 30.0501 2.57962 29.5834 3.78952 28.9208L5.71029 28.254Z" fill="black"/>
  <path d="M8.54591 32.3356C8.76851 32.2806 9.49501 32.1157 10.1606 31.9747L9.60533 33.9652C8.79232 34.1688 8.38985 34.254 7.63513 34.3841C7.10672 34.4741 6.5638 34.6235 6.36724 34.7373C6.25347 34.7974 5.83326 35.1851 5.62556 35.5551C5.30491 36.1323 5.34438 36.1049 4.93746 36.5844C4.63374 36.9418 4.28635 37.6558 4.28618 37.7467L4.29812 37.7623C4.32399 37.775 4.3888 37.7648 4.46549 37.7338C4.56586 37.6985 4.77783 37.6269 4.93746 37.5743C5.47136 37.4017 5.75282 37.2559 7.4444 36.2942L7.45049 36.2907C9.1035 35.3456 9.13909 35.3253 10.3503 34.823L10.7158 36.4319C10.3124 36.7164 9.57413 37.0718 9.30283 37.2061C9.16931 37.272 8.56043 37.6015 7.95422 37.9352C6.76049 38.5862 6.05607 38.9313 5.38544 39.183L4.29812 37.7623C4.29102 37.7589 4.28686 37.7537 4.28618 37.7467L4.28618 35.31L4.85052 33.9865L3.86879 33.7415L2.88706 34.3887L2.37036 34.0356L3.35209 32.8805L4.5405 32.8805L5.62556 33.1532L6.32843 32.8805L8.54591 32.3356Z" fill="black"/>
  <path d="M3.42478 32.8735C4.19983 34.5744 5.9876 37.1232 6.09094 37.0742C6.19428 37.0252 7.93548 39.1308 8.82944 39.7211V41.6327C8.00273 41.3386 7.90632 41.2593 7.17601 40.7504C7.04167 40.7504 5.31072 39.1623 4.64935 38.4075C4.10165 37.7849 2.84608 35.9566 2.36555 35.0939C1.96252 34.3636 1.37865 33.094 1.14097 32.4421C0.970456 31.9618 0.505428 30.3442 0.386588 29.7952C0.257413 29.1972 0.0972385 27.962 0.0404024 27.0748C-0.0991068 25.0014 0.128239 22.5603 0.644937 20.634C1.04796 19.1243 1.99352 16.9479 2.88224 15.4921C4.02931 13.6099 5.18672 12.2129 6.86599 10.6836C8.90178 8.83075 11.6454 7.17399 14.2289 6.24267C14.6991 6.07111 14.8955 6.02699 15.066 6.0417C15.19 6.0515 15.3398 6.42403 15.3398 6.70833C15.3398 7.04164 15.2055 7.62494 15.0712 7.87492C14.9523 8.1004 14.787 8.20334 14.1824 8.40431C13.4901 8.63469 11.878 9.40915 11.2321 9.82089C9.6975 10.7914 9.13946 11.2032 8.02856 12.159C7.11917 12.9482 6.12194 14.0853 5.21772 15.3696C4.49951 16.3891 3.57979 18.0998 3.2181 19.0851C3.12509 19.3399 2.98041 19.7272 2.89258 19.9428C2.58256 20.6879 2.27771 22.0359 2.05036 23.6436C2.00386 23.9475 1.98319 24.6681 1.98319 25.7023C1.98835 27.4571 2.05552 28.1483 2.37588 29.6482C2.66523 31.0206 2.87708 31.6726 3.42478 32.8735Z" fill="black"/>
  <path d="M18.4807 27.98C17.6564 28.4181 16.6165 28.8172 15.6919 28.9511L15.7694 29.5861C16.3816 29.5712 16.8115 29.5113 17.6285 29.4367C18.1298 29.4127 18.3887 29.3557 18.8293 29.2126L18.4807 27.98Z" fill="black"/>
  <path d="M37.2991 31.9289L40.916 32.9092C41.3648 31.4172 41.9494 30.3604 42.0527 28.7918C42.4661 25.7528 42.2725 23.3954 41.6394 21.1942C40.761 17.8611 39.8126 16.0462 37.7125 13.6947C37.051 12.954 36.3054 12.341 35.3356 11.3909L33.7339 10.3125C33.7081 11.5295 32.8831 13.3856 31.6154 13.8907C31.5591 12.9033 31.5421 12.4123 31.3054 11.4889C30.706 11.7812 30.2042 11.7823 29.3936 11.832V15.3612C29.4835 17.8886 29.2711 19.26 28.4635 21.6354C27.1565 24.1927 26.0072 25.4592 23.2966 27.3703L25.105 26.9292L30.0136 27.1743L35.3356 28.7918L37.3508 26.7821C37.7124 26.63 37.9301 26.6752 38.3325 26.8802C38.67 27.2062 38.6684 27.4192 38.5908 27.8115C37.5692 28.9715 36.7869 29.8302 37.0924 29.8702C36.8736 30.0046 37.5853 29.7887 39.6242 29.1349L40.4509 29.8702L40.1926 30.9486L37.2991 31.9289Z" fill="white"/>
  <path d="M10.7929 16.7827C12.3346 14.4118 13.4412 13.389 15.7015 11.93C15.7415 10.2768 15.9404 9.40633 16.4766 7.91064L14.5648 8.20475C11.7765 9.35395 10.3687 10.1604 8.15772 11.93C5.05212 15.0942 3.73101 17.0514 2.5257 21.0471C1.9441 23.0403 1.64103 26.018 2.31902 29.9682L5.67756 28.2526C6.89021 24.2838 7.98938 21.892 10.7929 16.7827Z" fill="white"/>
  <path d="M6.27973 28.5389L5.3114 29.3606L3.95575 29.4166L3.21982 29.51L2.60009 29.4727C2.34388 29.3088 2.15126 29.1512 2.17402 28.9124C2.10525 28.6063 2.42772 28.4218 2.60009 28.3148L4.45928 28.4642L3.68461 27.8292L3.14235 27.269L2.83249 26.9328C2.75501 26.634 2.71505 26.2417 2.87121 26.1111C3.08052 25.9474 3.57629 25.8806 3.87827 25.999C4.38354 26.388 4.38219 26.4317 5.1952 27.381L6.27973 28.5389Z" fill="black"/>
</svg>
